<?xml version="1.0" standalone="no"?>
<!DOCTYPE svg PUBLIC "-//W3C//DTD SVG 20010904//EN"
 "http://www.w3.org/TR/2001/REC-SVG-20010904/DTD/svg10.dtd">
<svg version="1.0" xmlns="http://www.w3.org/2000/svg"
 width="700.000000pt" height="700.000000pt" viewBox="0 0 700.000000 700.000000"
 preserveAspectRatio="xMidYMid meet">
<metadata>
Created by potrace 1.11, written by Peter Selinger 2001-2013
</metadata>
<g transform="translate(0.000000,700.000000) scale(0.100000,-0.100000)"
fill="#000000" stroke="none">
<path d="M1138 6645 c-1 -1 -28 -6 -59 -9 -142 -17 -332 -119 -464 -251 -122
-121 -218 -295 -251 -450 -10 -52 -13 -298 -3 -360 41 -259 232 -518 474 -643
85 -44 186 -81 248 -89 96 -14 336 -8 407 10 152 40 358 166 452 279 111 132
195 298 215 427 9 59 10 290 1 356 -13 93 -70 230 -143 340 -49 73 -153 180
-223 229 -96 67 -242 132 -337 151 -32 7 -311 16 -317 10z"/>
<path d="M5568 6634 c-89 -14 -225 -71 -318 -134 -184 -124 -335 -341 -384
-551 -21 -89 -15 -383 9 -459 59 -185 185 -370 318 -467 29 -20 54 -40 57 -44
9 -11 113 -64 180 -92 101 -42 195 -56 355 -52 77 2 149 5 160 8 171 42 330
127 445 239 110 107 194 241 243 389 41 122 44 376 5 519 -24 93 -89 218 -163
315 -115 151 -330 289 -509 327 -74 15 -308 17 -398 2z"/>
<path d="M3378 6625 c-2 -2 -23 -5 -48 -8 -128 -15 -319 -116 -445 -234 -71
-66 -147 -174 -195 -278 -69 -147 -75 -178 -75 -390 1 -178 7 -219 55 -332 91
-219 256 -393 462 -487 143 -66 193 -77 363 -80 241 -5 405 48 590 193 164
128 295 341 329 534 16 94 12 303 -7 394 -19 85 -77 214 -138 304 -123 184
-354 338 -559 374 -61 11 -322 19 -332 10z"/>
<path d="M3457 4424 c-1 -1 -33 -4 -72 -7 -211 -17 -472 -185 -609 -391 -46
-69 -109 -204 -124 -267 -31 -126 -34 -318 -6 -463 5 -30 61 -171 86 -216 91
-170 269 -328 458 -409 119 -50 184 -60 370 -57 147 3 174 6 245 30 208 69
372 193 491 373 53 79 117 219 128 279 28 151 24 369 -9 476 -60 200 -207 396
-381 511 -92 61 -250 123 -334 133 -61 6 -238 12 -243 8z"/>
<path d="M1110 4384 c-188 -28 -391 -139 -525 -285 -106 -116 -197 -295 -222
-439 -18 -100 -7 -377 16 -435 5 -11 21 -50 36 -88 44 -109 114 -214 205 -306
101 -104 303 -216 425 -238 17 -2 48 -8 70 -12 47 -9 236 -7 314 3 147 19 353
128 480 255 119 119 229 326 248 468 10 75 10 292 -1 361 -8 56 -58 189 -96
257 -83 150 -223 286 -376 368 -57 30 -166 73 -211 83 -32 7 -326 13 -363 8z"/>
<path d="M1080 2085 c-304 -48 -592 -305 -693 -620 -26 -80 -29 -102 -32 -250
-2 -89 2 -166 11 -211 65 -344 365 -644 707 -709 85 -15 343 -12 412 5 74 19
244 101 311 151 151 111 253 245 322 426 39 100 47 153 47 313 0 195 -15 260
-90 410 -118 235 -331 409 -585 477 -71 19 -311 24 -410 8z"/>
</g>
</svg>
